<svg width="25" height="25" viewBox="0 0 25 25" fill="none" xmlns="http://www.w3.org/2000/svg">
<path d="M12.9482 20.3042H21.9482M17.3242 3.92618C17.7223 3.52809 18.2622 3.30444 18.8252 3.30444C19.3882 3.30444 19.9281 3.52809 20.3262 3.92618C20.7243 4.32427 20.948 4.86419 20.948 5.42718C20.948 5.99016 20.7243 6.53009 20.3262 6.92818L8.31622 18.9392C8.07832 19.1771 7.78424 19.3511 7.46122 19.4452L4.58922 20.2832C4.50317 20.3083 4.41196 20.3098 4.32513 20.2875C4.2383 20.2653 4.15905 20.2201 4.09567 20.1567C4.03228 20.0934 3.98711 20.0141 3.96486 19.9273C3.94262 19.8404 3.94412 19.7492 3.96922 19.6632L4.80722 16.7912C4.90144 16.4685 5.07547 16.1748 5.31322 15.9372L17.3242 3.92618Z" stroke="#10B981" stroke-width="2" stroke-linecap="round" stroke-linejoin="round"/>
</svg>
