<svg width="13" height="16" viewBox="0 0 13 16" fill="none" xmlns="http://www.w3.org/2000/svg">
<path d="M11.3835 6.70443C11.3835 10.0331 7.6908 13.4998 6.4508 14.5704C6.33528 14.6573 6.19466 14.7043 6.05013 14.7043C5.9056 14.7043 5.76498 14.6573 5.64946 14.5704C4.40946 13.4998 0.716797 10.0331 0.716797 6.70443C0.716797 5.28994 1.2787 3.93339 2.27889 2.93319C3.27909 1.933 4.63564 1.37109 6.05013 1.37109C7.46462 1.37109 8.82117 1.933 9.82137 2.93319C10.8216 3.93339 11.3835 5.28994 11.3835 6.70443Z" stroke="#606060" stroke-width="1.4" stroke-linecap="round" stroke-linejoin="round"/>
<path d="M6.05013 8.70443C7.1547 8.70443 8.05013 7.809 8.05013 6.70443C8.05013 5.59986 7.1547 4.70443 6.05013 4.70443C4.94556 4.70443 4.05013 5.59986 4.05013 6.70443C4.05013 7.809 4.94556 8.70443 6.05013 8.70443Z" stroke="#606060" stroke-width="1.4" stroke-linecap="round" stroke-linejoin="round"/>
</svg>
