<svg width="201" height="119" viewBox="0 0 201 119" fill="none" xmlns="http://www.w3.org/2000/svg">
<path d="M36.7707 47.7039C36.547 45.4483 35.587 43.696 33.8906 42.4471C32.1943 41.1981 29.8921 40.5736 26.9841 40.5736C25.0081 40.5736 23.3398 40.8533 21.979 41.4125C20.6182 41.9531 19.5742 42.708 18.8472 43.6774C18.1389 44.6467 17.7847 45.7466 17.7847 46.9769C17.7474 48.0021 17.9618 48.8969 18.4278 49.6612C18.9125 50.4255 19.5742 51.0872 20.4131 51.6465C21.2519 52.1871 22.2213 52.6624 23.3211 53.0725C24.4209 53.464 25.5953 53.7995 26.8443 54.0791L31.9892 55.3095C34.4872 55.8687 36.78 56.6143 38.8678 57.5464C40.9556 58.4784 42.7638 59.6249 44.2924 60.9857C45.821 62.3465 47.0047 63.9496 47.8435 65.7951C48.701 67.6406 49.1391 69.7563 49.1577 72.1424C49.1391 75.6469 48.2443 78.6854 46.4734 81.2579C44.7211 83.8118 42.1859 85.797 38.8678 87.2138C35.5683 88.6118 31.5885 89.3109 26.9282 89.3109C22.3052 89.3109 18.2787 88.6025 14.8487 87.1858C11.4374 85.7691 8.77171 83.6719 6.85167 80.8944C4.95028 78.0982 3.95297 74.6403 3.85977 70.5206H15.5757C15.7062 72.4407 16.2561 74.0438 17.2255 75.33C18.2134 76.5976 19.5276 77.5577 21.1681 78.2101C22.8271 78.8439 24.7006 79.1608 26.7884 79.1608C28.8389 79.1608 30.6191 78.8625 32.1291 78.266C33.6576 77.6695 34.8413 76.84 35.6802 75.7774C36.519 74.7149 36.9385 73.4939 36.9385 72.1144C36.9385 70.8282 36.5563 69.747 35.792 68.8709C35.0464 67.9947 33.9466 67.2491 32.4926 66.6339C31.0572 66.0188 29.2956 65.4596 27.2078 64.9562L20.9723 63.3904C16.1443 62.216 12.3322 60.3798 9.53599 57.8819C6.73982 55.384 5.35106 52.0193 5.3697 47.7878C5.35106 44.3205 6.2738 41.2913 8.13791 38.7002C10.0207 36.1091 12.6025 34.0865 15.8833 32.6325C19.1641 31.1785 22.8924 30.4515 27.068 30.4515C31.3182 30.4515 35.0277 31.1785 38.1967 32.6325C41.3844 34.0865 43.8636 36.1091 45.6346 38.7002C47.4055 41.2913 48.3189 44.2925 48.3748 47.7039H36.7707ZM76.4833 89.3389C72.1399 89.3389 68.3837 88.4161 65.2147 86.5706C62.0644 84.7065 59.6317 82.1154 57.9167 78.7973C56.2017 75.4605 55.3443 71.5925 55.3443 67.1932C55.3443 62.7566 56.2017 58.8792 57.9167 55.5611C59.6317 52.2243 62.0644 49.6332 65.2147 47.7878C68.3837 45.9236 72.1399 44.9916 76.4833 44.9916C80.8267 44.9916 84.5736 45.9236 87.7239 47.7878C90.8929 49.6332 93.3349 52.2243 95.0499 55.5611C96.7649 58.8792 97.6224 62.7566 97.6224 67.1932C97.6224 71.5925 96.7649 75.4605 95.0499 78.7973C93.3349 82.1154 90.8929 84.7065 87.7239 86.5706C84.5736 88.4161 80.8267 89.3389 76.4833 89.3389ZM76.5392 80.1115C78.5152 80.1115 80.1649 79.5523 81.4884 78.4338C82.812 77.2967 83.8093 75.7495 84.4804 73.7921C85.1701 71.8348 85.5149 69.6072 85.5149 67.1093C85.5149 64.6114 85.1701 62.3838 84.4804 60.4264C83.8093 58.4691 82.812 56.9219 81.4884 55.7848C80.1649 54.6477 78.5152 54.0791 76.5392 54.0791C74.5446 54.0791 72.8669 54.6477 71.5061 55.7848C70.164 56.9219 69.148 58.4691 68.4583 60.4264C67.7872 62.3838 67.4517 64.6114 67.4517 67.1093C67.4517 69.6072 67.7872 71.8348 68.4583 73.7921C69.148 75.7495 70.164 77.2967 71.5061 78.4338C72.8669 79.5523 74.5446 80.1115 76.5392 80.1115ZM136.657 47.7039C136.433 45.4483 135.473 43.696 133.777 42.4471C132.08 41.1981 129.778 40.5736 126.87 40.5736C124.894 40.5736 123.226 40.8533 121.865 41.4125C120.504 41.9531 119.46 42.708 118.733 43.6774C118.025 44.6467 117.671 45.7466 117.671 46.9769C117.634 48.0021 117.848 48.8969 118.314 49.6612C118.799 50.4255 119.46 51.0872 120.299 51.6465C121.138 52.1871 122.107 52.6624 123.207 53.0725C124.307 53.464 125.482 53.7995 126.73 54.0791L131.875 55.3095C134.373 55.8687 136.666 56.6143 138.754 57.5464C140.842 58.4784 142.65 59.6249 144.179 60.9857C145.707 62.3465 146.891 63.9496 147.73 65.7951C148.587 67.6406 149.025 69.7563 149.044 72.1424C149.025 75.6469 148.131 78.6854 146.36 81.2579C144.607 83.8118 142.072 85.797 138.754 87.2138C135.455 88.6118 131.475 89.3109 126.814 89.3109C122.191 89.3109 118.165 88.6025 114.735 87.1858C111.324 85.7691 108.658 83.6719 106.738 80.8944C104.836 78.0982 103.839 74.6403 103.746 70.5206H115.462C115.592 72.4407 116.142 74.0438 117.112 75.33C118.1 76.5976 119.414 77.5577 121.054 78.2101C122.713 78.8439 124.587 79.1608 126.675 79.1608C128.725 79.1608 130.505 78.8625 132.015 78.266C133.544 77.6695 134.728 76.84 135.566 75.7774C136.405 74.7149 136.825 73.4939 136.825 72.1144C136.825 70.8282 136.443 69.747 135.678 68.8709C134.933 67.9947 133.833 67.2491 132.379 66.6339C130.943 66.0188 129.182 65.4596 127.094 64.9562L120.859 63.3904C116.03 62.216 112.218 60.3798 109.422 57.8819C106.626 55.384 105.237 52.0193 105.256 47.7878C105.237 44.3205 106.16 41.2913 108.024 38.7002C109.907 36.1091 112.489 34.0865 115.77 32.6325C119.05 31.1785 122.779 30.4515 126.954 30.4515C131.204 30.4515 134.914 31.1785 138.083 32.6325C141.271 34.0865 143.75 36.1091 145.521 38.7002C147.292 41.2913 148.205 44.2925 148.261 47.7039H136.657ZM176.369 89.3389C172.026 89.3389 168.27 88.4161 165.101 86.5706C161.951 84.7065 159.518 82.1154 157.803 78.7973C156.088 75.4605 155.23 71.5925 155.23 67.1932C155.23 62.7566 156.088 58.8792 157.803 55.5611C159.518 52.2243 161.951 49.6332 165.101 47.7878C168.27 45.9236 172.026 44.9916 176.369 44.9916C180.713 44.9916 184.46 45.9236 187.61 47.7878C190.779 49.6332 193.221 52.2243 194.936 55.5611C196.651 58.8792 197.509 62.7566 197.509 67.1932C197.509 71.5925 196.651 75.4605 194.936 78.7973C193.221 82.1154 190.779 84.7065 187.61 86.5706C184.46 88.4161 180.713 89.3389 176.369 89.3389ZM176.425 80.1115C178.401 80.1115 180.051 79.5523 181.375 78.4338C182.698 77.2967 183.695 75.7495 184.367 73.7921C185.056 71.8348 185.401 69.6072 185.401 67.1093C185.401 64.6114 185.056 62.3838 184.367 60.4264C183.695 58.4691 182.698 56.9219 181.375 55.7848C180.051 54.6477 178.401 54.0791 176.425 54.0791C174.431 54.0791 172.753 54.6477 171.392 55.7848C170.05 56.9219 169.034 58.4691 168.344 60.4264C167.673 62.3838 167.338 64.6114 167.338 67.1093C167.338 69.6072 167.673 71.8348 168.344 73.7921C169.034 75.7495 170.05 77.2967 171.392 78.4338C172.753 79.5523 174.431 80.1115 176.425 80.1115Z" fill="#49D386"/>
<path d="M64.3621 40.9256V38.0265C64.3621 37.2033 64.5231 36.3623 64.8453 35.5033C65.1674 34.6443 65.5924 33.8345 66.1203 33.074C66.6482 32.3134 67.2209 31.6781 67.8383 31.1681L70.3615 32.6579C69.8605 33.4453 69.4489 34.2685 69.1268 35.1275C68.8136 35.9865 68.657 36.9439 68.657 37.9997V40.9256H64.3621ZM87.256 32.3358V35.2348C87.256 36.058 87.0949 36.8991 86.7728 37.7581C86.4597 38.6081 86.0391 39.4134 85.5112 40.174C84.9833 40.9256 84.4062 41.5654 83.7798 42.0933L81.2565 40.6035C81.7039 39.8966 82.0976 39.1137 82.4376 38.2547C82.7866 37.3957 82.9611 36.398 82.9611 35.2617V32.3358H87.256Z" fill="#1FAA77"/>
</svg>
