<svg width="21" height="21" viewBox="0 0 21 21" fill="none" xmlns="http://www.w3.org/2000/svg">
<path d="M10.349 11.3757C10.8092 11.3757 11.1823 11.0026 11.1823 10.5424C11.1823 10.0822 10.8092 9.70907 10.349 9.70907C9.88872 9.70907 9.51562 10.0822 9.51562 10.5424C9.51562 11.0026 9.88872 11.3757 10.349 11.3757Z" stroke="#CDCDCD" stroke-width="1.66667" stroke-linecap="round" stroke-linejoin="round"/>
<path d="M10.349 5.5424C10.8092 5.5424 11.1823 5.1693 11.1823 4.70907C11.1823 4.24883 10.8092 3.87573 10.349 3.87573C9.88872 3.87573 9.51562 4.24883 9.51562 4.70907C9.51562 5.1693 9.88872 5.5424 10.349 5.5424Z" stroke="#CDCDCD" stroke-width="1.66667" stroke-linecap="round" stroke-linejoin="round"/>
<path d="M10.349 17.2091C10.8092 17.2091 11.1823 16.836 11.1823 16.3757C11.1823 15.9155 10.8092 15.5424 10.349 15.5424C9.88872 15.5424 9.51562 15.9155 9.51562 16.3757C9.51562 16.836 9.88872 17.2091 10.349 17.2091Z" stroke="#CDCDCD" stroke-width="1.66667" stroke-linecap="round" stroke-linejoin="round"/>
</svg>
