<svg width="336" height="167" viewBox="0 0 336 167" fill="none" xmlns="http://www.w3.org/2000/svg">
<g clip-path="url(#clip0_1036_15453)">
<path d="M27.6563 121.143C7.90001 123.985 1.71615 111.245 1.09375 104.521L154.357 126.839L154.375 145.867C140.506 157.729 121.235 145.833 113.334 138.402L75.7735 145.548C74.1676 143.131 70.7846 138.069 70.0997 137.151C69.2435 136.004 67.7755 138.434 66.8119 139.45C65.8484 140.466 57.7905 152.953 44.1642 149.495C30.538 146.037 35.8078 127.873 35.5712 123.403C35.382 119.827 30.2157 120.406 27.6563 121.143Z" fill="#6EE7B7"/>
<path d="M307.08 134.514C326.41 139.393 333.88 127.365 335.199 120.742L180.621 127.018L178.621 145.941C191.163 159.179 211.546 149.349 220.169 142.78L256.738 153.788C258.585 151.552 262.473 146.868 263.249 146.026C264.219 144.975 265.424 147.544 266.276 148.654C267.127 149.765 273.831 163.021 287.728 160.997C301.625 158.973 298.281 140.361 298.982 135.94C299.543 132.403 304.614 133.516 307.08 134.514Z" fill="#6EE7B7"/>
<path d="M27.8903 71.4624C32.0574 71.1709 35.8371 73.2827 37.8736 76.6174L53.6164 99.1079L35.9092 111.503L19.4292 87.9594L19.4579 87.939C18.5596 86.493 17.9903 84.8134 17.8633 82.9972C17.4469 77.0431 21.9362 71.8788 27.8903 71.4624Z" fill="#059669"/>
<ellipse cx="154.088" cy="75.1592" rx="4.38207" ry="2.24819" transform="rotate(-37.7358 154.088 75.1592)" fill="#D1FAE5"/>
<ellipse cx="163.97" cy="65.3432" rx="4.38207" ry="2.24819" transform="rotate(-53.8751 163.97 65.3432)" fill="#D1FAE5"/>
<ellipse cx="170.079" cy="52.9309" rx="4.38207" ry="2.24819" transform="rotate(-69.7453 170.079 52.9309)" fill="#D1FAE5"/>
<ellipse cx="142.646" cy="81.6379" rx="4.38207" ry="2.24819" transform="rotate(-25.8284 142.646 81.6379)" fill="#D1FAE5"/>
<path d="M159.816 34.1465C165.931 33.7189 171.234 38.3288 171.661 44.4429C171.723 45.3296 171.679 46.1991 171.539 47.0393C170.564 53.5981 165.129 67.9306 151.824 76.6219C137.936 85.6938 124.526 85.9401 119.557 84.9293L125.388 53.5259C130.867 53.182 143.268 49.9587 150.834 39.9262C152.584 36.7065 155.89 34.4211 159.816 34.1465Z" fill="#059669"/>
<path d="M89.0487 1.86031C121.973 -0.442189 150.53 24.382 152.833 57.3063C153.258 63.3906 152.755 69.3254 151.448 74.9733L149.005 89.8793C148.736 91.1928 147.947 93.6847 151.16 95.6561C153.532 97.1122 155.517 95.64 158.126 95.1836C158.929 94.9805 159.762 94.846 160.618 94.7861C168.394 94.2425 175.14 100.106 175.684 107.882C176.103 113.874 172.717 119.253 167.584 121.655L167.728 122.063C165.242 123.638 160.56 126.002 155.193 127.518C156.952 129.691 158.086 132.406 158.296 135.406C158.84 143.183 152.977 149.928 145.201 150.472C142.291 150.675 139.525 149.981 137.174 148.626C133.324 147.333 124.737 143.345 121.051 137.681C117.36 132.01 112.927 137.975 111.172 141.666L105.87 152.195L105.826 152.198C103.755 156.772 99.3048 160.093 93.945 160.468C88.5975 160.842 83.7367 158.186 81.0457 153.962C79.8372 152.531 71.1419 141.64 69.722 133.858C68.5819 130.526 64.7145 131.353 63.1648 134.317C61.6151 137.28 58.4579 141.872 57.0371 143.802L57.0149 143.792C54.6493 147.078 50.894 149.329 46.5385 149.633C38.7623 150.177 32.0178 144.313 31.4739 136.537C31.3243 134.398 31.6595 132.336 32.3862 130.461C33.7047 126.598 36.1641 122.595 33.7082 117.434C30.362 110.403 22.0068 119.417 12.2264 116.178C6.10975 114.988 1.30525 109.819 0.84961 103.307C0.305764 95.531 6.16924 88.7858 13.9457 88.2419C15.0824 88.1624 16.197 88.2205 17.2735 88.4008C17.2769 88.3956 17.2808 88.3904 17.2842 88.3853C17.3474 88.4013 17.411 88.4189 17.4756 88.4356C18.2374 88.5746 18.9792 88.7758 19.6956 89.0331C24.7215 90.414 31.8622 92.299 35.3875 89.2485C37.8328 87.1319 37.2843 83.4004 36.4247 80.1148C34.9225 75.5262 33.9549 70.6803 33.6027 65.6446C31.3001 32.7202 56.1243 4.16285 89.0487 1.86031Z" fill="#34D399"/>
<ellipse cx="148.205" cy="114.703" rx="5.57353" ry="2.85946" transform="rotate(-37.7358 148.205 114.703)" fill="#D1FAE5"/>
<ellipse cx="160.771" cy="102.218" rx="5.57353" ry="2.85946" transform="rotate(-53.8751 160.771 102.218)" fill="#D1FAE5"/>
<ellipse cx="168.542" cy="86.4305" rx="5.57353" ry="2.85946" transform="rotate(-69.7453 168.542 86.4305)" fill="#D1FAE5"/>
<ellipse cx="133.653" cy="122.943" rx="5.57353" ry="2.85946" transform="rotate(-25.8284 133.653 122.943)" fill="#D1FAE5"/>
<path d="M155.491 62.5387C163.267 61.9948 170.012 67.8581 170.556 75.6346C170.635 76.759 170.578 77.8616 170.403 78.9272C169.166 87.2648 162.254 105.504 145.325 116.563C127.661 128.102 110.605 128.415 104.285 127.129L111.701 87.1874C118.67 86.75 134.443 82.6506 144.065 69.8913C146.291 65.7955 150.496 62.888 155.491 62.5387Z" fill="url(#paint0_linear_1036_15453)"/>
<ellipse cx="131.967" cy="63.6428" rx="3.93378" ry="5.6599" transform="rotate(-4.00044 131.967 63.6428)" fill="#1A1A1A"/>
<ellipse cx="143.639" cy="46.7328" rx="3.93378" ry="5.6599" transform="rotate(-4.00044 143.639 46.7328)" fill="#1A1A1A"/>
<path d="M228.04 1.93374C230.338 1.77305 232.447 2.78353 233.783 4.45655L233.816 4.44091C235.203 5.86156 239.081 9.10112 242.133 8.55648L227.019 17.3391C226.038 16.7926 223.421 14.2088 222.309 11.3155C222.02 10.6402 221.837 9.90592 221.783 9.13186C221.523 5.4163 224.325 2.19359 228.04 1.93374Z" fill="#059669"/>
<path d="M313.923 86.4093C309.828 85.6542 305.849 87.3169 303.449 90.3834L285.256 110.991L301.459 125.296L320.479 103.752L320.452 103.727C321.506 102.391 322.261 100.787 322.591 98.9973C323.673 93.1277 319.793 87.4917 313.923 86.4093Z" fill="#34D399"/>
<ellipse cx="4.38207" cy="2.24819" rx="4.38207" ry="2.24819" transform="matrix(-0.717118 -0.696952 -0.696952 0.717118 191.086 76.1979)" fill="#D1FAE5"/>
<ellipse cx="4.38207" cy="2.24819" rx="4.38207" ry="2.24819" transform="matrix(-0.495122 -0.868824 -0.868824 0.495122 181.781 66.5867)" fill="#D1FAE5"/>
<ellipse cx="4.38207" cy="2.24819" rx="4.38207" ry="2.24819" transform="matrix(-0.238661 -0.971103 -0.971103 0.238661 176.207 54.5916)" fill="#D1FAE5"/>
<ellipse cx="4.38207" cy="2.24819" rx="4.38207" ry="2.24819" transform="matrix(-0.84549 -0.533992 -0.533992 0.84549 201.918 82.9174)" fill="#ECFDF5"/>
<path d="M185.286 33.3593C179.259 32.2479 173.471 36.2332 172.36 42.2606C172.199 43.1347 172.146 44.0037 172.19 44.8542C172.422 51.4811 176.214 66.3333 188.459 76.4636C201.24 87.0375 214.537 88.788 219.589 88.3415L217.321 56.4821C211.915 55.5251 199.954 50.9296 193.563 40.1111C192.185 36.7153 189.157 34.0731 185.286 33.3593Z" fill="#059669"/>
<path d="M259.23 9.22317C226.773 3.23822 195.609 24.6988 189.624 57.1564C188.514 63.1734 188.349 69.1458 189.021 74.9217L189.772 89.9537C189.893 91.2891 190.397 93.8528 186.983 95.4512C184.462 96.6317 182.655 94.9459 180.114 94.1994C179.338 93.9074 178.526 93.6802 177.682 93.5246C170.016 92.1111 162.655 97.1802 161.242 104.846C160.152 110.753 162.913 116.479 167.744 119.442L167.555 119.831C169.848 121.676 174.235 124.551 179.398 126.659C177.406 128.621 175.975 131.191 175.43 134.149C174.016 141.815 179.084 149.176 186.75 150.59C189.622 151.119 192.452 150.74 194.942 149.654C198.917 148.799 207.888 145.801 212.182 140.591C216.487 135.371 220.222 141.795 221.551 145.66L225.638 156.719L225.681 156.727C227.225 161.504 231.275 165.303 236.559 166.277C241.842 167.251 246.981 165.147 250.128 161.234L250.228 161.253C252.943 159.618 261.324 150.154 263.616 142.557C265.123 139.374 268.873 140.63 270.08 143.749C271.288 146.868 273.909 151.785 275.104 153.862L275.129 153.853C277.11 157.385 280.588 160.043 284.882 160.835C292.548 162.248 299.909 157.18 301.322 149.514C301.714 147.391 301.608 145.291 301.087 143.335C300.207 139.36 298.236 135.118 301.246 130.281C305.36 123.671 312.648 133.559 322.726 131.445C328.941 130.953 334.299 126.354 335.484 119.932C336.897 112.266 331.828 104.905 324.162 103.491C323.041 103.284 321.927 103.217 320.837 103.275C320.835 103.27 320.831 103.264 320.828 103.259C320.765 103.267 320.702 103.278 320.638 103.287C319.478 103.366 318.348 103.587 317.268 103.937C312.493 104.957 306.625 106.244 303.703 103.077C300.518 99.6228 302.978 92.8004 304.308 89.1154C305.543 85.8344 306.506 82.3986 307.164 78.8299C313.149 46.3723 291.688 15.2082 259.23 9.22317Z" fill="#34D399"/>
<ellipse cx="5.57353" cy="2.85946" rx="5.57353" ry="2.85946" transform="matrix(-0.717118 -0.696952 -0.696952 0.717118 193.773 116.544)" fill="#D1FAE5"/>
<ellipse cx="5.57353" cy="2.85946" rx="5.57353" ry="2.85946" transform="matrix(-0.495122 -0.868824 -0.868824 0.495122 181.941 104.319)" fill="#D1FAE5"/>
<ellipse cx="5.57353" cy="2.85946" rx="5.57353" ry="2.85946" transform="matrix(-0.238661 -0.971103 -0.971103 0.238661 174.852 89.0627)" fill="#D1FAE5"/>
<ellipse cx="5.57353" cy="2.85946" rx="5.57353" ry="2.85946" transform="matrix(-0.84549 -0.533992 -0.533992 0.84549 207.555 125.09)" fill="#D1FAE5"/>
<path d="M186.397 62.0574C178.731 60.6438 171.37 65.7126 169.956 73.3789C169.752 74.4873 169.684 75.5893 169.739 76.6679C170.032 85.0916 174.852 103.992 190.432 116.882C206.689 130.331 223.602 132.557 230.026 131.989L227.142 91.4673C220.266 90.2501 205.054 84.4055 196.925 70.6465C195.173 66.3266 191.321 62.9653 186.397 62.0574Z" fill="url(#paint1_linear_1036_15453)"/>
<path d="M218.322 61.4861C218.322 61.4861 210.857 62.0014 210.061 64.9352M210.061 64.9352C209.302 67.7378 214.782 72.1848 214.782 72.1848M210.061 64.9352L216.478 67.0582" stroke="black" stroke-width="3.41488" stroke-linecap="round"/>
<path d="M197.909 46.7012C197.909 46.7012 202.553 52.5683 200.919 55.1312M200.919 55.1312C199.358 57.5796 192.38 56.521 192.38 56.521M200.919 55.1312L195.03 51.8155" stroke="black" stroke-width="3.41488" stroke-linecap="round"/>
<path d="M295.615 44.6888C294.306 42.7939 292.199 41.778 290.058 41.7789L290.05 41.7439C288.074 41.5479 283.122 40.5421 281.641 37.8182C281.641 37.8182 272.002 45.0268 274.292 50.1404C276.064 54.0971 283.936 55.5785 283.936 55.5785C286.457 55.97 288.913 55.9626 291.867 55.0239C292.575 54.8278 293.263 54.5122 293.901 54.0711C296.965 51.9536 297.733 47.753 295.615 44.6888Z" fill="url(#paint2_linear_1036_15453)"/>
<path opacity="0.2" d="M155.024 127.545C148.258 126.719 112.857 128.506 104.605 127.284C121.518 127.696 128.215 124.768 128.452 124.645C128.958 126.264 130.705 127.466 135.183 125.335C138.766 123.63 138.985 121.347 138.647 120.419L143.547 117.701C143.97 118.917 146.266 119.831 150.016 116.918C153.525 114.192 153.132 111.945 152.446 111.067C158.537 105.092 161.659 100.707 164.669 95.0822C165.101 95.088 166.425 95.5879 167.034 95.8372C165.459 96.935 164.134 98.4915 163.742 99.0884C156.986 108.683 164.248 118.166 169.018 120.831C164.977 124.724 158.005 126.929 155.024 127.545Z" fill="black"/>
<path opacity="0.2" d="M169.892 78.8982C169.403 76.6207 169.828 73.8961 170.102 72.8185C170.02 71.6352 168.501 69 167.633 67.9617C162.702 75.848 164.731 86.9899 166.391 91.5512C166.658 91.7828 167.882 92.0872 169.19 90.7341C169.492 90.4407 170.149 89.7337 170.365 89.2526C169.838 88.6085 169.197 88.084 168.444 86.4602L167.964 84.9076C166.853 80.6413 168.787 79.1237 169.892 78.8982Z" fill="black"/>
<path opacity="0.2" d="M171.063 41.5252C171.778 43.4587 171.807 45.6658 171.58 46.7566C170.855 47.5385 170.399 48.2781 170.62 50.3583C170.797 52.0225 171.636 53.5567 172.039 54.1006C171.964 54.2615 171.741 54.8099 171.368 55.3349C170.391 57.0625 168.929 57.3658 168.381 56.9725C167.881 55.5716 166.759 51.351 166.274 45.676C165.789 40.001 167.951 38.2578 169.104 38.0927C169.445 38.5034 170.348 39.5917 171.063 41.5252Z" fill="black"/>
</g>
<defs>
<linearGradient id="paint0_linear_1036_15453" x1="163.706" y1="74.0133" x2="121.462" y2="106.411" gradientUnits="userSpaceOnUse">
<stop stop-color="#059669"/>
<stop offset="1" stop-color="#34D399"/>
</linearGradient>
<linearGradient id="paint1_linear_1036_15453" x1="176.945" y1="72.537" x2="215.284" y2="109.473" gradientUnits="userSpaceOnUse">
<stop stop-color="#059669"/>
<stop offset="1" stop-color="#34D399"/>
</linearGradient>
<linearGradient id="paint2_linear_1036_15453" x1="296.748" y1="50.0114" x2="277.359" y2="43.2598" gradientUnits="userSpaceOnUse">
<stop stop-color="#059669"/>
<stop offset="1" stop-color="#34D399"/>
</linearGradient>
<clipPath id="clip0_1036_15453">
<rect width="335" height="165.791" fill="white" transform="translate(0.734375 0.823975)"/>
</clipPath>
</defs>
</svg>
