<svg width="366" height="220" viewBox="0 0 366 220" fill="none" xmlns="http://www.w3.org/2000/svg">
<rect x="196.301" y="66.1715" width="22.4544" height="4.17468" transform="rotate(-43.4055 196.301 66.1715)" fill="#C796FF"/>
<rect x="181.898" y="67.9218" width="11.9578" height="2.22316" transform="rotate(54.7625 181.898 67.9218)" fill="#C796FF"/>
<path d="M168.341 55.2996L169.21 56.9854L171.016 56.4075L170.438 58.2137L172.124 59.0822L170.438 59.9508L171.016 61.757L169.21 61.1791L168.341 62.8649L167.473 61.1791L165.667 61.757L166.244 59.9508L164.559 59.0822L166.244 58.2137L165.667 56.4075L167.473 56.9854L168.341 55.2996Z" fill="#ECFDF5"/>
<rect x="333.629" y="216.371" width="14.2109" height="4.17468" transform="rotate(-42.6965 333.629 216.371)" fill="#EBD9FF"/>
<circle cx="333.631" cy="199.876" r="2.67053" fill="#DCFAFF"/>
<rect x="3.63281" y="38.074" width="34.5845" height="4.32306" transform="rotate(43.7429 3.63281 38.074)" fill="#8FD0DA"/>
<rect x="319.629" y="33.0996" width="15.5188" height="1.93986" transform="rotate(-33.6002 319.629 33.0996)" fill="#C796FF"/>
<rect x="26.1992" y="212.372" width="23.6075" height="4.38904" transform="rotate(-13.6255 26.1992 212.372)" fill="#C796FF"/>
<rect x="352.586" y="120.795" width="14.2109" height="4.17468" transform="rotate(21.2684 352.586 120.795)" fill="#DAFF96"/>
<circle cx="42.3908" cy="83.3932" r="4.86344" fill="#C796FF"/>
<path opacity="0.418488" fill-rule="evenodd" clip-rule="evenodd" d="M333.547 62.2157C332.382 60.9373 330.348 62.3651 331.154 63.8956C331.549 64.6464 331.231 65.5753 330.458 65.9253C328.882 66.6387 329.611 69.0144 331.316 68.7205C332.152 68.5764 332.937 69.1665 333.031 70.0099C333.222 71.7292 335.707 71.7697 335.955 70.0575C336.076 69.2176 336.88 68.6534 337.711 68.8247C339.405 69.1739 340.212 66.8232 338.66 66.0589C337.898 65.684 337.61 64.7452 338.03 64.0076C338.886 62.5042 336.899 61.0109 335.693 62.2506C335.101 62.8588 334.119 62.8428 333.547 62.2157ZM335.257 67.1966C335.809 66.8089 335.943 66.0471 335.555 65.4948C335.168 64.9426 334.406 64.8092 333.853 65.1968C333.301 65.5844 333.168 66.3463 333.555 66.8985C333.943 67.4508 334.705 67.5842 335.257 67.1966Z" fill="#812FED"/>
<path opacity="0.63248" d="M41.5545 11.0275C40.7858 8.71053 43.8889 7.13519 45.3056 9.12324C45.8474 9.88353 46.8216 10.2017 47.7077 9.90767C50.0247 9.13889 51.6 12.242 49.612 13.6587C48.8517 14.2005 48.5335 15.1747 48.8275 16.0608C49.5963 18.3778 46.4932 19.9531 45.0765 17.9651C44.5347 17.2048 43.5604 16.8866 42.6744 17.1807C40.3574 17.9494 38.7821 14.8463 40.7701 13.4296C41.5304 12.8878 41.8485 11.9136 41.5545 11.0275Z" fill="#EB5757"/>
<path opacity="0.63248" d="M220.06 34.606C218.793 30.7892 223.905 28.1941 226.239 31.4691C227.131 32.7215 228.736 33.2456 230.196 32.7613C234.013 31.4948 236.608 36.6067 233.333 38.9404C232.08 39.8329 231.556 41.4377 232.041 42.8974C233.307 46.7142 228.195 49.3092 225.862 46.0343C224.969 44.7819 223.364 44.2578 221.905 44.7421C218.088 46.0085 215.493 40.8967 218.768 38.5629C220.02 37.6704 220.544 36.0656 220.06 34.606Z" fill="#FF0000"/>
<path d="M42.8669 181.102L43.9414 183.188L46.1758 182.473L45.4609 184.707L47.5464 185.782L45.4609 186.856L46.1758 189.091L43.9414 188.376L42.8669 190.461L41.7925 188.376L39.5581 189.091L40.273 186.856L38.1875 185.782L40.273 184.707L39.5581 182.473L41.7925 183.188L42.8669 181.102Z" fill="#E7D3D3"/>
<path opacity="0.597371" d="M154.244 35.9429C154.265 36.4774 153.504 36.5994 153.358 36.0849L152.131 31.7686C150.546 26.1952 145.348 22.4338 139.559 22.6703L135.075 22.8535C134.541 22.8753 134.419 22.1142 134.933 21.9679L139.249 20.7405C144.823 19.1557 148.584 13.9583 148.348 8.16875L148.165 3.68513C148.143 3.1506 148.904 3.02861 149.05 3.54317L150.278 7.85943C151.862 13.4328 157.06 17.1943 162.849 16.9577L167.333 16.7745C167.867 16.7527 167.989 17.5138 167.475 17.6602L163.159 18.8875C157.585 20.4723 153.824 25.6698 154.06 31.4593L154.244 35.9429Z" fill="black"/>
</svg>
